<mxfile host="app.diagrams.net" agent="Mozilla/5.0 (Windows NT 10.0; Win64; x64) AppleWebKit/537.36 (KHTML, like Gecko) Chrome/138.0.0.0 Safari/537.36" version="28.0.3">
  <diagram id="C5RBs43oDa-KdzZeNtuy" name="Page-1">
    <mxGraphModel dx="1869" dy="562" grid="1" gridSize="10" guides="1" tooltips="1" connect="1" arrows="1" fold="1" page="1" pageScale="1" pageWidth="827" pageHeight="1169" math="0" shadow="0">
      <root>
        <mxCell id="WIyWlLk6GJQsqaUBKTNV-0" />
        <mxCell id="WIyWlLk6GJQsqaUBKTNV-1" parent="WIyWlLk6GJQsqaUBKTNV-0" />
        <mxCell id="M7CGMbNuYNeq0SnUNNgH-6" value="ทบทวนสัญลักษณ์" style="swimlane;fontFamily=Sarabun;fontSource=https%3A%2F%2Ffonts.googleapis.com%2Fcss%3Ffamily%3DSarabun;" parent="WIyWlLk6GJQsqaUBKTNV-1" vertex="1">
          <mxGeometry x="-720" y="20" width="640" height="290" as="geometry" />
        </mxCell>
        <mxCell id="M7CGMbNuYNeq0SnUNNgH-2" value="&lt;font data-font-src=&quot;https://fonts.googleapis.com/css?family=Sarabun&quot; face=&quot;Sarabun&quot;&gt;เริ่มต้น&lt;/font&gt;" style="ellipse;whiteSpace=wrap;html=1;" parent="M7CGMbNuYNeq0SnUNNgH-6" vertex="1">
          <mxGeometry x="20" y="40" width="130" height="30" as="geometry" />
        </mxCell>
        <mxCell id="M7CGMbNuYNeq0SnUNNgH-5" value="" style="endArrow=classic;html=1;rounded=0;" parent="M7CGMbNuYNeq0SnUNNgH-6" edge="1">
          <mxGeometry width="50" height="50" relative="1" as="geometry">
            <mxPoint x="84.5" y="70" as="sourcePoint" />
            <mxPoint x="84.5" y="120" as="targetPoint" />
          </mxGeometry>
        </mxCell>
        <mxCell id="M7CGMbNuYNeq0SnUNNgH-3" value="&lt;font face=&quot;Sarabun&quot;&gt;สิ้นสุด&lt;/font&gt;" style="ellipse;whiteSpace=wrap;html=1;" parent="M7CGMbNuYNeq0SnUNNgH-6" vertex="1">
          <mxGeometry x="150" y="90" width="130" height="30" as="geometry" />
        </mxCell>
        <mxCell id="M7CGMbNuYNeq0SnUNNgH-4" value="" style="endArrow=classic;html=1;rounded=0;" parent="M7CGMbNuYNeq0SnUNNgH-6" edge="1">
          <mxGeometry width="50" height="50" relative="1" as="geometry">
            <mxPoint x="214.5" y="40" as="sourcePoint" />
            <mxPoint x="214.5" y="90" as="targetPoint" />
          </mxGeometry>
        </mxCell>
        <mxCell id="mvioNwK95yMqdUQ73LqQ-0" value="กระบวนการ" style="rounded=0;whiteSpace=wrap;html=1;fontFamily=Sarabun;fontSource=https%3A%2F%2Ffonts.googleapis.com%2Fcss%3Ffamily%3DSarabun;" parent="M7CGMbNuYNeq0SnUNNgH-6" vertex="1">
          <mxGeometry x="320" y="70" width="120" height="30" as="geometry" />
        </mxCell>
        <mxCell id="mvioNwK95yMqdUQ73LqQ-1" value="" style="endArrow=classic;html=1;rounded=0;" parent="M7CGMbNuYNeq0SnUNNgH-6" edge="1">
          <mxGeometry width="50" height="50" relative="1" as="geometry">
            <mxPoint x="379" y="40" as="sourcePoint" />
            <mxPoint x="379.5" y="70" as="targetPoint" />
          </mxGeometry>
        </mxCell>
        <mxCell id="mvioNwK95yMqdUQ73LqQ-2" value="" style="endArrow=classic;html=1;rounded=0;" parent="M7CGMbNuYNeq0SnUNNgH-6" edge="1">
          <mxGeometry width="50" height="50" relative="1" as="geometry">
            <mxPoint x="379.75" y="100" as="sourcePoint" />
            <mxPoint x="380.25" y="130" as="targetPoint" />
          </mxGeometry>
        </mxCell>
        <mxCell id="mvioNwK95yMqdUQ73LqQ-3" value="ประโยคเงื่อนไข" style="rhombus;whiteSpace=wrap;html=1;fontFamily=Sarabun;fontSource=https%3A%2F%2Ffonts.googleapis.com%2Fcss%3Ffamily%3DSarabun;" parent="M7CGMbNuYNeq0SnUNNgH-6" vertex="1">
          <mxGeometry x="490" y="60" width="100" height="60" as="geometry" />
        </mxCell>
        <mxCell id="mvioNwK95yMqdUQ73LqQ-4" value="" style="endArrow=classic;html=1;rounded=0;" parent="M7CGMbNuYNeq0SnUNNgH-6" edge="1">
          <mxGeometry width="50" height="50" relative="1" as="geometry">
            <mxPoint x="539.71" y="30" as="sourcePoint" />
            <mxPoint x="540.21" y="60" as="targetPoint" />
          </mxGeometry>
        </mxCell>
        <mxCell id="mvioNwK95yMqdUQ73LqQ-5" value="" style="endArrow=classic;html=1;rounded=0;" parent="M7CGMbNuYNeq0SnUNNgH-6" edge="1">
          <mxGeometry width="50" height="50" relative="1" as="geometry">
            <mxPoint x="539.71" y="120" as="sourcePoint" />
            <mxPoint x="540" y="175" as="targetPoint" />
          </mxGeometry>
        </mxCell>
        <mxCell id="mvioNwK95yMqdUQ73LqQ-7" value="จริง" style="edgeLabel;html=1;align=center;verticalAlign=middle;resizable=0;points=[];fontFamily=Sarabun;fontSource=https%3A%2F%2Ffonts.googleapis.com%2Fcss%3Ffamily%3DSarabun;" parent="mvioNwK95yMqdUQ73LqQ-5" vertex="1" connectable="0">
          <mxGeometry x="-0.4142" y="-1" relative="1" as="geometry">
            <mxPoint as="offset" />
          </mxGeometry>
        </mxCell>
        <mxCell id="mvioNwK95yMqdUQ73LqQ-6" value="" style="endArrow=classic;html=1;rounded=0;exitX=1;exitY=0.5;exitDx=0;exitDy=0;" parent="M7CGMbNuYNeq0SnUNNgH-6" source="mvioNwK95yMqdUQ73LqQ-3" edge="1">
          <mxGeometry width="50" height="50" relative="1" as="geometry">
            <mxPoint x="620" y="95" as="sourcePoint" />
            <mxPoint x="610" y="175" as="targetPoint" />
            <Array as="points">
              <mxPoint x="610" y="90" />
            </Array>
          </mxGeometry>
        </mxCell>
        <mxCell id="mvioNwK95yMqdUQ73LqQ-8" value="&lt;font data-font-src=&quot;https://fonts.googleapis.com/css?family=Sarabun&quot; face=&quot;Sarabun&quot;&gt;เท็จ&lt;/font&gt;" style="edgeLabel;html=1;align=center;verticalAlign=middle;resizable=0;points=[];" parent="mvioNwK95yMqdUQ73LqQ-6" vertex="1" connectable="0">
          <mxGeometry x="-0.0019" y="-2" relative="1" as="geometry">
            <mxPoint as="offset" />
          </mxGeometry>
        </mxCell>
        <mxCell id="mvioNwK95yMqdUQ73LqQ-9" value="&lt;font data-font-src=&quot;https://fonts.googleapis.com/css?family=Sarabun&quot; face=&quot;Sarabun&quot;&gt;ฟังก์ชัน/โมดูล&lt;/font&gt;" style="shape=process;whiteSpace=wrap;html=1;backgroundOutline=1;" parent="M7CGMbNuYNeq0SnUNNgH-6" vertex="1">
          <mxGeometry x="25" y="180" width="120" height="30" as="geometry" />
        </mxCell>
        <mxCell id="mvioNwK95yMqdUQ73LqQ-11" value="" style="endArrow=classic;html=1;rounded=0;" parent="M7CGMbNuYNeq0SnUNNgH-6" edge="1">
          <mxGeometry width="50" height="50" relative="1" as="geometry">
            <mxPoint x="84.70999999999998" y="150" as="sourcePoint" />
            <mxPoint x="85.20999999999998" y="180" as="targetPoint" />
          </mxGeometry>
        </mxCell>
        <mxCell id="mvioNwK95yMqdUQ73LqQ-12" value="" style="endArrow=classic;html=1;rounded=0;" parent="M7CGMbNuYNeq0SnUNNgH-6" edge="1">
          <mxGeometry width="50" height="50" relative="1" as="geometry">
            <mxPoint x="84.70999999999998" y="210" as="sourcePoint" />
            <mxPoint x="85.20999999999998" y="240" as="targetPoint" />
          </mxGeometry>
        </mxCell>
        <mxCell id="mvioNwK95yMqdUQ73LqQ-13" value="" style="strokeWidth=2;html=1;shape=mxgraph.flowchart.start_2;whiteSpace=wrap;" parent="M7CGMbNuYNeq0SnUNNgH-6" vertex="1">
          <mxGeometry x="205" y="185" width="20" height="20" as="geometry" />
        </mxCell>
        <mxCell id="mvioNwK95yMqdUQ73LqQ-16" value="" style="endArrow=classic;html=1;rounded=0;" parent="M7CGMbNuYNeq0SnUNNgH-6" edge="1">
          <mxGeometry width="50" height="50" relative="1" as="geometry">
            <mxPoint x="214.70999999999998" y="155" as="sourcePoint" />
            <mxPoint x="215.20999999999998" y="185" as="targetPoint" />
          </mxGeometry>
        </mxCell>
        <mxCell id="mvioNwK95yMqdUQ73LqQ-17" value="" style="endArrow=classic;html=1;rounded=0;entryX=0;entryY=0.5;entryDx=0;entryDy=0;entryPerimeter=0;" parent="M7CGMbNuYNeq0SnUNNgH-6" target="mvioNwK95yMqdUQ73LqQ-13" edge="1">
          <mxGeometry width="50" height="50" relative="1" as="geometry">
            <mxPoint x="189.99999999999997" y="155" as="sourcePoint" />
            <mxPoint x="190.49999999999997" y="185" as="targetPoint" />
            <Array as="points">
              <mxPoint x="190" y="180" />
            </Array>
          </mxGeometry>
        </mxCell>
        <mxCell id="mvioNwK95yMqdUQ73LqQ-18" value="" style="endArrow=classic;html=1;rounded=0;entryX=1;entryY=0.5;entryDx=0;entryDy=0;entryPerimeter=0;" parent="M7CGMbNuYNeq0SnUNNgH-6" target="mvioNwK95yMqdUQ73LqQ-13" edge="1">
          <mxGeometry width="50" height="50" relative="1" as="geometry">
            <mxPoint x="239.99999999999997" y="155" as="sourcePoint" />
            <mxPoint x="240.49999999999997" y="185" as="targetPoint" />
            <Array as="points">
              <mxPoint x="240" y="180" />
            </Array>
          </mxGeometry>
        </mxCell>
        <mxCell id="mvioNwK95yMqdUQ73LqQ-19" value="" style="endArrow=classic;html=1;rounded=0;" parent="M7CGMbNuYNeq0SnUNNgH-6" edge="1">
          <mxGeometry width="50" height="50" relative="1" as="geometry">
            <mxPoint x="214.70999999999998" y="205" as="sourcePoint" />
            <mxPoint x="215.20999999999998" y="235" as="targetPoint" />
          </mxGeometry>
        </mxCell>
        <mxCell id="mvioNwK95yMqdUQ73LqQ-20" value="&lt;font data-font-src=&quot;https://fonts.googleapis.com/css?family=Sarabun&quot; face=&quot;Sarabun&quot;&gt;ตัวเชื่อม&lt;/font&gt;" style="text;html=1;align=center;verticalAlign=middle;resizable=0;points=[];autosize=1;strokeColor=none;fillColor=none;" parent="M7CGMbNuYNeq0SnUNNgH-6" vertex="1">
          <mxGeometry x="220" y="190" width="60" height="30" as="geometry" />
        </mxCell>
        <mxCell id="mvioNwK95yMqdUQ73LqQ-25" value="" style="endArrow=classic;html=1;rounded=0;" parent="M7CGMbNuYNeq0SnUNNgH-6" edge="1">
          <mxGeometry width="50" height="50" relative="1" as="geometry">
            <mxPoint x="353.71" y="165" as="sourcePoint" />
            <mxPoint x="354.21" y="195" as="targetPoint" />
          </mxGeometry>
        </mxCell>
        <mxCell id="mvioNwK95yMqdUQ73LqQ-21" value="" style="verticalLabelPosition=bottom;verticalAlign=top;html=1;shape=offPageConnector;rounded=0;size=0.5;" parent="M7CGMbNuYNeq0SnUNNgH-6" vertex="1">
          <mxGeometry x="339" y="195" width="30" height="30" as="geometry" />
        </mxCell>
        <mxCell id="mvioNwK95yMqdUQ73LqQ-26" value="" style="endArrow=classic;html=1;rounded=0;" parent="M7CGMbNuYNeq0SnUNNgH-6" edge="1">
          <mxGeometry width="50" height="50" relative="1" as="geometry">
            <mxPoint x="405.71" y="195" as="sourcePoint" />
            <mxPoint x="406.21" y="225" as="targetPoint" />
          </mxGeometry>
        </mxCell>
        <mxCell id="mvioNwK95yMqdUQ73LqQ-27" value="" style="verticalLabelPosition=bottom;verticalAlign=top;html=1;shape=offPageConnector;rounded=0;size=0.5;" parent="M7CGMbNuYNeq0SnUNNgH-6" vertex="1">
          <mxGeometry x="391" y="165" width="30" height="30" as="geometry" />
        </mxCell>
        <mxCell id="mvioNwK95yMqdUQ73LqQ-28" value="หน้าต่อไป" style="text;html=1;align=center;verticalAlign=middle;resizable=0;points=[];autosize=1;strokeColor=none;fillColor=none;fontFamily=Sarabun;fontSource=https%3A%2F%2Ffonts.googleapis.com%2Fcss%3Ffamily%3DSarabun;" parent="M7CGMbNuYNeq0SnUNNgH-6" vertex="1">
          <mxGeometry x="345" y="220" width="70" height="30" as="geometry" />
        </mxCell>
        <mxCell id="mvioNwK95yMqdUQ73LqQ-29" value="ก" style="text;html=1;align=center;verticalAlign=middle;resizable=0;points=[];autosize=1;strokeColor=none;fillColor=none;fontFamily=Sarabun;fontSource=https%3A%2F%2Ffonts.googleapis.com%2Fcss%3Ffamily%3DSarabun;" parent="M7CGMbNuYNeq0SnUNNgH-6" vertex="1">
          <mxGeometry x="339" y="190" width="30" height="30" as="geometry" />
        </mxCell>
        <mxCell id="mvioNwK95yMqdUQ73LqQ-30" value="ก" style="text;html=1;align=center;verticalAlign=middle;resizable=0;points=[];autosize=1;strokeColor=none;fillColor=none;fontFamily=Sarabun;fontSource=https%3A%2F%2Ffonts.googleapis.com%2Fcss%3Ffamily%3DSarabun;" parent="M7CGMbNuYNeq0SnUNNgH-6" vertex="1">
          <mxGeometry x="391" y="160" width="30" height="30" as="geometry" />
        </mxCell>
        <mxCell id="mvioNwK95yMqdUQ73LqQ-32" value="แสดงผล/รับค่า" style="shape=parallelogram;perimeter=parallelogramPerimeter;whiteSpace=wrap;html=1;fixedSize=1;fontFamily=Sarabun;fontSource=https%3A%2F%2Ffonts.googleapis.com%2Fcss%3Ffamily%3DSarabun;" parent="M7CGMbNuYNeq0SnUNNgH-6" vertex="1">
          <mxGeometry x="450" y="210" width="120" height="30" as="geometry" />
        </mxCell>
        <mxCell id="mvioNwK95yMqdUQ73LqQ-33" value="" style="endArrow=classic;html=1;rounded=0;" parent="M7CGMbNuYNeq0SnUNNgH-6" edge="1">
          <mxGeometry width="50" height="50" relative="1" as="geometry">
            <mxPoint x="509.71" y="180" as="sourcePoint" />
            <mxPoint x="510.21" y="210" as="targetPoint" />
          </mxGeometry>
        </mxCell>
        <mxCell id="mvioNwK95yMqdUQ73LqQ-34" value="" style="endArrow=classic;html=1;rounded=0;" parent="M7CGMbNuYNeq0SnUNNgH-6" edge="1">
          <mxGeometry width="50" height="50" relative="1" as="geometry">
            <mxPoint x="509.71" y="240" as="sourcePoint" />
            <mxPoint x="510.21" y="270" as="targetPoint" />
          </mxGeometry>
        </mxCell>
        <mxCell id="mvioNwK95yMqdUQ73LqQ-36" value="เ" style="swimlane;fontFamily=Sarabun;fontSource=https%3A%2F%2Ffonts.googleapis.com%2Fcss%3Ffamily%3DSarabun;" parent="WIyWlLk6GJQsqaUBKTNV-1" vertex="1">
          <mxGeometry x="-800" y="600" width="920" height="2640" as="geometry" />
        </mxCell>
        <mxCell id="mvioNwK95yMqdUQ73LqQ-35" value="&lt;font data-font-src=&quot;https://fonts.googleapis.com/css?family=Sarabun&quot; face=&quot;Sarabun&quot;&gt;เริ่มต้น&lt;/font&gt;" style="ellipse;whiteSpace=wrap;html=1;" parent="mvioNwK95yMqdUQ73LqQ-36" vertex="1">
          <mxGeometry x="331.5" y="40" width="130" height="30" as="geometry" />
        </mxCell>
        <mxCell id="KaDtegf5qcM63kL2RaSg-64" value="cash&lt;div&gt;10=10&amp;nbsp; &amp;nbsp; &amp;nbsp; &amp;nbsp;I 500=10&lt;/div&gt;&lt;div&gt;5=10&amp;nbsp; &amp;nbsp; &amp;nbsp; &amp;nbsp; &amp;nbsp;I 100=10&lt;/div&gt;&lt;div&gt;1=20&amp;nbsp; &amp;nbsp; &amp;nbsp; &amp;nbsp; &amp;nbsp;I 20&amp;nbsp; =20&lt;/div&gt;" style="rounded=0;whiteSpace=wrap;html=1;align=left;" vertex="1" parent="mvioNwK95yMqdUQ73LqQ-36">
          <mxGeometry x="341.5" y="100" width="137" height="65" as="geometry" />
        </mxCell>
        <mxCell id="KaDtegf5qcM63kL2RaSg-70" value="Drink&amp;nbsp; &amp;nbsp; &amp;nbsp; &amp;nbsp; &amp;nbsp; &amp;nbsp; &amp;nbsp; &amp;nbsp;Snack&lt;div&gt;&lt;div&gt;โค้ก=10&amp;nbsp; &amp;nbsp; &amp;nbsp; &amp;nbsp; &amp;nbsp; &amp;nbsp;I เมล็ดทานตะวัน=10&lt;/div&gt;&lt;div&gt;น้ำเขียว=10&amp;nbsp; &amp;nbsp; &amp;nbsp; I ถั่วเเปบ=10&lt;/div&gt;&lt;div&gt;อเมริกาโน=10&amp;nbsp; I จิ้นส้มหมก=10&lt;/div&gt;&lt;div&gt;ลาเต้=10&amp;nbsp; &amp;nbsp; &amp;nbsp; &amp;nbsp; &amp;nbsp; I&amp;nbsp;&lt;/div&gt;&lt;/div&gt;" style="rounded=0;whiteSpace=wrap;html=1;align=left;" vertex="1" parent="mvioNwK95yMqdUQ73LqQ-36">
          <mxGeometry x="310" y="220" width="200" height="100" as="geometry" />
        </mxCell>
        <mxCell id="KaDtegf5qcM63kL2RaSg-137" value="" style="edgeStyle=orthogonalEdgeStyle;rounded=0;orthogonalLoop=1;jettySize=auto;html=1;entryX=0.5;entryY=0;entryDx=0;entryDy=0;" edge="1" parent="mvioNwK95yMqdUQ73LqQ-36" source="KaDtegf5qcM63kL2RaSg-71" target="KaDtegf5qcM63kL2RaSg-79">
          <mxGeometry relative="1" as="geometry" />
        </mxCell>
        <mxCell id="KaDtegf5qcM63kL2RaSg-71" value="เเสดงจอหน้าต่างสินค้า" style="shape=display;whiteSpace=wrap;html=1;" vertex="1" parent="mvioNwK95yMqdUQ73LqQ-36">
          <mxGeometry x="331.5" y="360" width="140" height="60" as="geometry" />
        </mxCell>
        <mxCell id="KaDtegf5qcM63kL2RaSg-68" value="" style="endArrow=none;html=1;rounded=0;entryX=0.425;entryY=1;entryDx=0;entryDy=0;entryPerimeter=0;exitX=0.449;exitY=0.042;exitDx=0;exitDy=0;exitPerimeter=0;" edge="1" parent="mvioNwK95yMqdUQ73LqQ-36" source="KaDtegf5qcM63kL2RaSg-70" target="KaDtegf5qcM63kL2RaSg-64">
          <mxGeometry width="50" height="50" relative="1" as="geometry">
            <mxPoint x="419.5" y="200" as="sourcePoint" />
            <mxPoint x="531.5" y="210" as="targetPoint" />
          </mxGeometry>
        </mxCell>
        <mxCell id="KaDtegf5qcM63kL2RaSg-74" value="" style="endArrow=none;html=1;rounded=0;" edge="1" parent="mvioNwK95yMqdUQ73LqQ-36" source="KaDtegf5qcM63kL2RaSg-71">
          <mxGeometry width="50" height="50" relative="1" as="geometry">
            <mxPoint x="350" y="370" as="sourcePoint" />
            <mxPoint x="400" y="320" as="targetPoint" />
          </mxGeometry>
        </mxCell>
        <mxCell id="KaDtegf5qcM63kL2RaSg-81" value="" style="edgeStyle=orthogonalEdgeStyle;rounded=0;orthogonalLoop=1;jettySize=auto;html=1;" edge="1" parent="mvioNwK95yMqdUQ73LqQ-36" source="KaDtegf5qcM63kL2RaSg-79" target="KaDtegf5qcM63kL2RaSg-80">
          <mxGeometry relative="1" as="geometry" />
        </mxCell>
        <mxCell id="KaDtegf5qcM63kL2RaSg-90" value="" style="edgeStyle=orthogonalEdgeStyle;rounded=0;orthogonalLoop=1;jettySize=auto;html=1;" edge="1" parent="mvioNwK95yMqdUQ73LqQ-36" source="KaDtegf5qcM63kL2RaSg-79">
          <mxGeometry relative="1" as="geometry">
            <mxPoint x="400" y="570" as="targetPoint" />
          </mxGeometry>
        </mxCell>
        <mxCell id="KaDtegf5qcM63kL2RaSg-79" value="ลูกค้าเลือก&lt;div&gt;ค้า&lt;/div&gt;" style="rhombus;whiteSpace=wrap;html=1;" vertex="1" parent="mvioNwK95yMqdUQ73LqQ-36">
          <mxGeometry x="360" y="440" width="80" height="80" as="geometry" />
        </mxCell>
        <mxCell id="KaDtegf5qcM63kL2RaSg-86" value="" style="edgeStyle=orthogonalEdgeStyle;rounded=0;orthogonalLoop=1;jettySize=auto;html=1;" edge="1" parent="mvioNwK95yMqdUQ73LqQ-36" source="KaDtegf5qcM63kL2RaSg-80" target="KaDtegf5qcM63kL2RaSg-85">
          <mxGeometry relative="1" as="geometry" />
        </mxCell>
        <mxCell id="KaDtegf5qcM63kL2RaSg-80" value="" style="shape=waypoint;sketch=0;size=6;pointerEvents=1;points=[];fillColor=default;resizable=0;rotatable=0;perimeter=centerPerimeter;snapToPoint=1;" vertex="1" parent="mvioNwK95yMqdUQ73LqQ-36">
          <mxGeometry x="550" y="470" width="20" height="20" as="geometry" />
        </mxCell>
        <mxCell id="KaDtegf5qcM63kL2RaSg-87" value="" style="edgeStyle=orthogonalEdgeStyle;rounded=0;orthogonalLoop=1;jettySize=auto;html=1;" edge="1" parent="mvioNwK95yMqdUQ73LqQ-36" source="KaDtegf5qcM63kL2RaSg-85">
          <mxGeometry relative="1" as="geometry">
            <mxPoint x="480" y="120" as="targetPoint" />
          </mxGeometry>
        </mxCell>
        <mxCell id="KaDtegf5qcM63kL2RaSg-85" value="" style="shape=waypoint;sketch=0;size=6;pointerEvents=1;points=[];fillColor=default;resizable=0;rotatable=0;perimeter=centerPerimeter;snapToPoint=1;" vertex="1" parent="mvioNwK95yMqdUQ73LqQ-36">
          <mxGeometry x="550" y="110" width="20" height="20" as="geometry" />
        </mxCell>
        <mxCell id="KaDtegf5qcM63kL2RaSg-89" value="ไม่เลือก" style="text;html=1;align=center;verticalAlign=middle;whiteSpace=wrap;rounded=0;rotation=90;" vertex="1" parent="mvioNwK95yMqdUQ73LqQ-36">
          <mxGeometry x="560" y="270" width="60" height="40" as="geometry" />
        </mxCell>
        <mxCell id="KaDtegf5qcM63kL2RaSg-91" value="เลือก" style="text;html=1;align=center;verticalAlign=middle;whiteSpace=wrap;rounded=0;" vertex="1" parent="mvioNwK95yMqdUQ73LqQ-36">
          <mxGeometry x="401.5" y="520" width="60" height="30" as="geometry" />
        </mxCell>
        <mxCell id="KaDtegf5qcM63kL2RaSg-94" value="" style="edgeStyle=orthogonalEdgeStyle;rounded=0;orthogonalLoop=1;jettySize=auto;html=1;" edge="1" parent="mvioNwK95yMqdUQ73LqQ-36" source="KaDtegf5qcM63kL2RaSg-92" target="KaDtegf5qcM63kL2RaSg-93">
          <mxGeometry relative="1" as="geometry" />
        </mxCell>
        <mxCell id="KaDtegf5qcM63kL2RaSg-92" value="เเสดงสินค้าที่เลือก+เเสดงราคาทั้งหมด" style="rounded=0;whiteSpace=wrap;html=1;" vertex="1" parent="mvioNwK95yMqdUQ73LqQ-36">
          <mxGeometry x="331.5" y="569" width="140" height="60" as="geometry" />
        </mxCell>
        <mxCell id="KaDtegf5qcM63kL2RaSg-93" value="" style="shape=waypoint;sketch=0;size=6;pointerEvents=1;points=[];fillColor=default;resizable=0;rotatable=0;perimeter=centerPerimeter;snapToPoint=1;rounded=0;" vertex="1" parent="mvioNwK95yMqdUQ73LqQ-36">
          <mxGeometry x="391.5" y="670" width="20" height="20" as="geometry" />
        </mxCell>
        <mxCell id="KaDtegf5qcM63kL2RaSg-97" value="" style="edgeStyle=orthogonalEdgeStyle;rounded=0;orthogonalLoop=1;jettySize=auto;html=1;" edge="1" parent="mvioNwK95yMqdUQ73LqQ-36" source="KaDtegf5qcM63kL2RaSg-95" target="KaDtegf5qcM63kL2RaSg-96">
          <mxGeometry relative="1" as="geometry" />
        </mxCell>
        <mxCell id="KaDtegf5qcM63kL2RaSg-108" value="" style="edgeStyle=orthogonalEdgeStyle;rounded=0;orthogonalLoop=1;jettySize=auto;html=1;" edge="1" parent="mvioNwK95yMqdUQ73LqQ-36" source="KaDtegf5qcM63kL2RaSg-95" target="KaDtegf5qcM63kL2RaSg-107">
          <mxGeometry relative="1" as="geometry" />
        </mxCell>
        <mxCell id="KaDtegf5qcM63kL2RaSg-95" value="ต้องการเพิ่ม&lt;div&gt;สินค้าไหม&lt;/div&gt;" style="rhombus;whiteSpace=wrap;html=1;" vertex="1" parent="mvioNwK95yMqdUQ73LqQ-36">
          <mxGeometry x="361.5" y="680" width="80" height="80" as="geometry" />
        </mxCell>
        <mxCell id="KaDtegf5qcM63kL2RaSg-99" value="" style="edgeStyle=orthogonalEdgeStyle;rounded=0;orthogonalLoop=1;jettySize=auto;html=1;" edge="1" parent="mvioNwK95yMqdUQ73LqQ-36" source="KaDtegf5qcM63kL2RaSg-96" target="KaDtegf5qcM63kL2RaSg-98">
          <mxGeometry relative="1" as="geometry" />
        </mxCell>
        <mxCell id="KaDtegf5qcM63kL2RaSg-96" value="" style="shape=waypoint;sketch=0;size=6;pointerEvents=1;points=[];fillColor=default;resizable=0;rotatable=0;perimeter=centerPerimeter;snapToPoint=1;" vertex="1" parent="mvioNwK95yMqdUQ73LqQ-36">
          <mxGeometry x="231.5" y="710" width="20" height="20" as="geometry" />
        </mxCell>
        <mxCell id="KaDtegf5qcM63kL2RaSg-103" value="" style="edgeStyle=orthogonalEdgeStyle;rounded=0;orthogonalLoop=1;jettySize=auto;html=1;" edge="1" parent="mvioNwK95yMqdUQ73LqQ-36" source="KaDtegf5qcM63kL2RaSg-98" target="KaDtegf5qcM63kL2RaSg-71">
          <mxGeometry relative="1" as="geometry" />
        </mxCell>
        <mxCell id="KaDtegf5qcM63kL2RaSg-98" value="" style="shape=waypoint;sketch=0;size=6;pointerEvents=1;points=[];fillColor=default;resizable=0;rotatable=0;perimeter=centerPerimeter;snapToPoint=1;" vertex="1" parent="mvioNwK95yMqdUQ73LqQ-36">
          <mxGeometry x="231.5" y="380" width="20" height="20" as="geometry" />
        </mxCell>
        <mxCell id="KaDtegf5qcM63kL2RaSg-104" value="เลือก" style="text;html=1;align=center;verticalAlign=middle;whiteSpace=wrap;rounded=0;rotation=-90;" vertex="1" parent="mvioNwK95yMqdUQ73LqQ-36">
          <mxGeometry x="191.5" y="530" width="60" height="30" as="geometry" />
        </mxCell>
        <mxCell id="KaDtegf5qcM63kL2RaSg-112" value="" style="edgeStyle=orthogonalEdgeStyle;rounded=0;orthogonalLoop=1;jettySize=auto;html=1;" edge="1" parent="mvioNwK95yMqdUQ73LqQ-36" source="KaDtegf5qcM63kL2RaSg-107">
          <mxGeometry relative="1" as="geometry">
            <mxPoint x="401.5" y="800" as="targetPoint" />
          </mxGeometry>
        </mxCell>
        <mxCell id="KaDtegf5qcM63kL2RaSg-114" value="" style="edgeStyle=orthogonalEdgeStyle;rounded=0;orthogonalLoop=1;jettySize=auto;html=1;" edge="1" parent="mvioNwK95yMqdUQ73LqQ-36" source="KaDtegf5qcM63kL2RaSg-107" target="KaDtegf5qcM63kL2RaSg-113">
          <mxGeometry relative="1" as="geometry" />
        </mxCell>
        <mxCell id="KaDtegf5qcM63kL2RaSg-107" value="" style="shape=waypoint;sketch=0;size=6;pointerEvents=1;points=[];fillColor=default;resizable=0;rotatable=0;perimeter=centerPerimeter;snapToPoint=1;" vertex="1" parent="mvioNwK95yMqdUQ73LqQ-36">
          <mxGeometry x="391.5" y="790" width="20" height="20" as="geometry" />
        </mxCell>
        <mxCell id="KaDtegf5qcM63kL2RaSg-119" value="" style="edgeStyle=orthogonalEdgeStyle;rounded=0;orthogonalLoop=1;jettySize=auto;html=1;" edge="1" parent="mvioNwK95yMqdUQ73LqQ-36" source="KaDtegf5qcM63kL2RaSg-113" target="KaDtegf5qcM63kL2RaSg-118">
          <mxGeometry relative="1" as="geometry" />
        </mxCell>
        <mxCell id="KaDtegf5qcM63kL2RaSg-121" value="" style="edgeStyle=orthogonalEdgeStyle;rounded=0;orthogonalLoop=1;jettySize=auto;html=1;" edge="1" parent="mvioNwK95yMqdUQ73LqQ-36" source="KaDtegf5qcM63kL2RaSg-113" target="KaDtegf5qcM63kL2RaSg-120">
          <mxGeometry relative="1" as="geometry" />
        </mxCell>
        <mxCell id="KaDtegf5qcM63kL2RaSg-113" value="เเสดงสินค้า/ราคาทั้งหมด" style="shape=parallelogram;perimeter=parallelogramPerimeter;whiteSpace=wrap;html=1;fixedSize=1;sketch=0;pointerEvents=1;resizable=0;size=18.5;direction=east;" vertex="1" parent="mvioNwK95yMqdUQ73LqQ-36">
          <mxGeometry x="341.5" y="800" width="120" height="60" as="geometry" />
        </mxCell>
        <mxCell id="KaDtegf5qcM63kL2RaSg-118" value="บันทึกสินค้าเเละราคา&lt;div&gt;ลงฐานข้อมูล&lt;/div&gt;" style="whiteSpace=wrap;html=1;sketch=0;pointerEvents=1;resizable=0;" vertex="1" parent="mvioNwK95yMqdUQ73LqQ-36">
          <mxGeometry x="161.5" y="800" width="120" height="60" as="geometry" />
        </mxCell>
        <mxCell id="KaDtegf5qcM63kL2RaSg-123" value="" style="edgeStyle=orthogonalEdgeStyle;rounded=0;orthogonalLoop=1;jettySize=auto;html=1;" edge="1" parent="mvioNwK95yMqdUQ73LqQ-36" source="KaDtegf5qcM63kL2RaSg-120" target="KaDtegf5qcM63kL2RaSg-122">
          <mxGeometry relative="1" as="geometry" />
        </mxCell>
        <mxCell id="KaDtegf5qcM63kL2RaSg-120" value="ลูกค้าใส่เงิน" style="whiteSpace=wrap;html=1;sketch=0;pointerEvents=1;resizable=0;" vertex="1" parent="mvioNwK95yMqdUQ73LqQ-36">
          <mxGeometry x="341.5" y="890" width="120" height="60" as="geometry" />
        </mxCell>
        <mxCell id="KaDtegf5qcM63kL2RaSg-125" value="" style="edgeStyle=orthogonalEdgeStyle;rounded=0;orthogonalLoop=1;jettySize=auto;html=1;" edge="1" parent="mvioNwK95yMqdUQ73LqQ-36" source="KaDtegf5qcM63kL2RaSg-122" target="KaDtegf5qcM63kL2RaSg-124">
          <mxGeometry relative="1" as="geometry" />
        </mxCell>
        <mxCell id="KaDtegf5qcM63kL2RaSg-131" value="" style="edgeStyle=orthogonalEdgeStyle;rounded=0;orthogonalLoop=1;jettySize=auto;html=1;" edge="1" parent="mvioNwK95yMqdUQ73LqQ-36" source="KaDtegf5qcM63kL2RaSg-122" target="KaDtegf5qcM63kL2RaSg-130">
          <mxGeometry relative="1" as="geometry" />
        </mxCell>
        <mxCell id="KaDtegf5qcM63kL2RaSg-122" value="ตรวจสอบ&lt;div&gt;เงิน&lt;/div&gt;" style="rhombus;whiteSpace=wrap;html=1;sketch=0;pointerEvents=1;resizable=0;" vertex="1" parent="mvioNwK95yMqdUQ73LqQ-36">
          <mxGeometry x="361.5" y="990" width="80" height="80" as="geometry" />
        </mxCell>
        <mxCell id="KaDtegf5qcM63kL2RaSg-127" value="" style="edgeStyle=orthogonalEdgeStyle;rounded=0;orthogonalLoop=1;jettySize=auto;html=1;" edge="1" parent="mvioNwK95yMqdUQ73LqQ-36" source="KaDtegf5qcM63kL2RaSg-124" target="KaDtegf5qcM63kL2RaSg-126">
          <mxGeometry relative="1" as="geometry" />
        </mxCell>
        <mxCell id="KaDtegf5qcM63kL2RaSg-124" value="" style="shape=waypoint;sketch=0;size=6;pointerEvents=1;points=[];fillColor=default;resizable=0;rotatable=0;perimeter=centerPerimeter;snapToPoint=1;" vertex="1" parent="mvioNwK95yMqdUQ73LqQ-36">
          <mxGeometry x="510" y="1020" width="20" height="20" as="geometry" />
        </mxCell>
        <mxCell id="KaDtegf5qcM63kL2RaSg-128" value="" style="edgeStyle=orthogonalEdgeStyle;rounded=0;orthogonalLoop=1;jettySize=auto;html=1;" edge="1" parent="mvioNwK95yMqdUQ73LqQ-36" source="KaDtegf5qcM63kL2RaSg-126" target="KaDtegf5qcM63kL2RaSg-120">
          <mxGeometry relative="1" as="geometry" />
        </mxCell>
        <mxCell id="KaDtegf5qcM63kL2RaSg-126" value="" style="shape=waypoint;sketch=0;size=6;pointerEvents=1;points=[];fillColor=default;resizable=0;rotatable=0;perimeter=centerPerimeter;snapToPoint=1;" vertex="1" parent="mvioNwK95yMqdUQ73LqQ-36">
          <mxGeometry x="510" y="910" width="20" height="20" as="geometry" />
        </mxCell>
        <mxCell id="KaDtegf5qcM63kL2RaSg-129" value="ไม่พอใส่เพิ่ม" style="text;html=1;align=center;verticalAlign=middle;whiteSpace=wrap;rounded=0;rotation=90;" vertex="1" parent="mvioNwK95yMqdUQ73LqQ-36">
          <mxGeometry x="510" y="950" width="60" height="30" as="geometry" />
        </mxCell>
        <mxCell id="KaDtegf5qcM63kL2RaSg-134" value="" style="edgeStyle=orthogonalEdgeStyle;rounded=0;orthogonalLoop=1;jettySize=auto;html=1;" edge="1" parent="mvioNwK95yMqdUQ73LqQ-36" source="KaDtegf5qcM63kL2RaSg-130">
          <mxGeometry relative="1" as="geometry">
            <mxPoint x="401.5" y="1100" as="targetPoint" />
          </mxGeometry>
        </mxCell>
        <mxCell id="KaDtegf5qcM63kL2RaSg-136" value="" style="edgeStyle=orthogonalEdgeStyle;rounded=0;orthogonalLoop=1;jettySize=auto;html=1;" edge="1" parent="mvioNwK95yMqdUQ73LqQ-36" source="KaDtegf5qcM63kL2RaSg-130" target="KaDtegf5qcM63kL2RaSg-135">
          <mxGeometry relative="1" as="geometry" />
        </mxCell>
        <mxCell id="KaDtegf5qcM63kL2RaSg-130" value="" style="shape=waypoint;sketch=0;size=6;pointerEvents=1;points=[];fillColor=default;resizable=0;rotatable=0;perimeter=centerPerimeter;snapToPoint=1;" vertex="1" parent="mvioNwK95yMqdUQ73LqQ-36">
          <mxGeometry x="391.5" y="1090" width="20" height="20" as="geometry" />
        </mxCell>
        <mxCell id="KaDtegf5qcM63kL2RaSg-140" value="" style="edgeStyle=orthogonalEdgeStyle;rounded=0;orthogonalLoop=1;jettySize=auto;html=1;" edge="1" parent="mvioNwK95yMqdUQ73LqQ-36" source="KaDtegf5qcM63kL2RaSg-135" target="KaDtegf5qcM63kL2RaSg-139">
          <mxGeometry relative="1" as="geometry" />
        </mxCell>
        <mxCell id="KaDtegf5qcM63kL2RaSg-135" value="เเสดงจำนวนเงิน&lt;div&gt;ที่จ่าย&lt;/div&gt;" style="shape=parallelogram;perimeter=parallelogramPerimeter;whiteSpace=wrap;html=1;fixedSize=1;sketch=0;pointerEvents=1;resizable=0;" vertex="1" parent="mvioNwK95yMqdUQ73LqQ-36">
          <mxGeometry x="341.5" y="1094" width="120" height="60" as="geometry" />
        </mxCell>
        <mxCell id="KaDtegf5qcM63kL2RaSg-149" value="" style="edgeStyle=orthogonalEdgeStyle;rounded=0;orthogonalLoop=1;jettySize=auto;html=1;" edge="1" parent="mvioNwK95yMqdUQ73LqQ-36" source="KaDtegf5qcM63kL2RaSg-139" target="KaDtegf5qcM63kL2RaSg-148">
          <mxGeometry relative="1" as="geometry" />
        </mxCell>
        <mxCell id="KaDtegf5qcM63kL2RaSg-153" value="" style="edgeStyle=orthogonalEdgeStyle;rounded=0;orthogonalLoop=1;jettySize=auto;html=1;" edge="1" parent="mvioNwK95yMqdUQ73LqQ-36" source="KaDtegf5qcM63kL2RaSg-139" target="KaDtegf5qcM63kL2RaSg-152">
          <mxGeometry relative="1" as="geometry" />
        </mxCell>
        <mxCell id="KaDtegf5qcM63kL2RaSg-139" value="ต้องทอนเงิน&lt;div&gt;ไหม&lt;/div&gt;" style="rhombus;whiteSpace=wrap;html=1;sketch=0;pointerEvents=1;resizable=0;" vertex="1" parent="mvioNwK95yMqdUQ73LqQ-36">
          <mxGeometry x="361.5" y="1190" width="80" height="80" as="geometry" />
        </mxCell>
        <mxCell id="KaDtegf5qcM63kL2RaSg-146" value="" style="edgeStyle=orthogonalEdgeStyle;rounded=0;orthogonalLoop=1;jettySize=auto;html=1;" edge="1" parent="mvioNwK95yMqdUQ73LqQ-36" source="KaDtegf5qcM63kL2RaSg-143" target="KaDtegf5qcM63kL2RaSg-145">
          <mxGeometry relative="1" as="geometry" />
        </mxCell>
        <mxCell id="KaDtegf5qcM63kL2RaSg-143" value="" style="shape=waypoint;sketch=0;size=6;pointerEvents=1;points=[];fillColor=default;resizable=0;rotatable=0;perimeter=centerPerimeter;snapToPoint=1;" vertex="1" parent="mvioNwK95yMqdUQ73LqQ-36">
          <mxGeometry x="70" y="110" width="20" height="20" as="geometry" />
        </mxCell>
        <mxCell id="KaDtegf5qcM63kL2RaSg-145" value="" style="shape=waypoint;sketch=0;size=6;pointerEvents=1;points=[];fillColor=default;resizable=0;rotatable=0;perimeter=centerPerimeter;snapToPoint=1;" vertex="1" parent="mvioNwK95yMqdUQ73LqQ-36">
          <mxGeometry x="331.5" y="110" width="20" height="20" as="geometry" />
        </mxCell>
        <mxCell id="KaDtegf5qcM63kL2RaSg-151" value="" style="edgeStyle=orthogonalEdgeStyle;rounded=0;orthogonalLoop=1;jettySize=auto;html=1;" edge="1" parent="mvioNwK95yMqdUQ73LqQ-36" source="KaDtegf5qcM63kL2RaSg-148">
          <mxGeometry relative="1" as="geometry">
            <mxPoint x="401.5" y="1300" as="targetPoint" />
          </mxGeometry>
        </mxCell>
        <mxCell id="KaDtegf5qcM63kL2RaSg-159" value="" style="edgeStyle=orthogonalEdgeStyle;rounded=0;orthogonalLoop=1;jettySize=auto;html=1;" edge="1" parent="mvioNwK95yMqdUQ73LqQ-36" source="KaDtegf5qcM63kL2RaSg-148" target="KaDtegf5qcM63kL2RaSg-158">
          <mxGeometry relative="1" as="geometry" />
        </mxCell>
        <mxCell id="KaDtegf5qcM63kL2RaSg-148" value="" style="shape=waypoint;sketch=0;size=6;pointerEvents=1;points=[];fillColor=default;resizable=0;rotatable=0;perimeter=centerPerimeter;snapToPoint=1;" vertex="1" parent="mvioNwK95yMqdUQ73LqQ-36">
          <mxGeometry x="391.5" y="1290" width="20" height="20" as="geometry" />
        </mxCell>
        <mxCell id="KaDtegf5qcM63kL2RaSg-155" value="" style="edgeStyle=orthogonalEdgeStyle;rounded=0;orthogonalLoop=1;jettySize=auto;html=1;" edge="1" parent="mvioNwK95yMqdUQ73LqQ-36" source="KaDtegf5qcM63kL2RaSg-152" target="KaDtegf5qcM63kL2RaSg-154">
          <mxGeometry relative="1" as="geometry" />
        </mxCell>
        <mxCell id="KaDtegf5qcM63kL2RaSg-152" value="" style="shape=waypoint;sketch=0;size=6;pointerEvents=1;points=[];fillColor=default;resizable=0;rotatable=0;perimeter=centerPerimeter;snapToPoint=1;" vertex="1" parent="mvioNwK95yMqdUQ73LqQ-36">
          <mxGeometry x="231.5" y="1220" width="20" height="20" as="geometry" />
        </mxCell>
        <mxCell id="KaDtegf5qcM63kL2RaSg-157" value="" style="edgeStyle=orthogonalEdgeStyle;rounded=0;orthogonalLoop=1;jettySize=auto;html=1;" edge="1" parent="mvioNwK95yMqdUQ73LqQ-36" source="KaDtegf5qcM63kL2RaSg-154" target="KaDtegf5qcM63kL2RaSg-156">
          <mxGeometry relative="1" as="geometry" />
        </mxCell>
        <mxCell id="KaDtegf5qcM63kL2RaSg-154" value="บันทึกเงินทอนลง&lt;div&gt;ข้อมูล&lt;/div&gt;" style="whiteSpace=wrap;html=1;sketch=0;pointerEvents=1;resizable=0;" vertex="1" parent="mvioNwK95yMqdUQ73LqQ-36">
          <mxGeometry x="100" y="1200" width="120" height="60" as="geometry" />
        </mxCell>
        <mxCell id="KaDtegf5qcM63kL2RaSg-156" value="" style="shape=waypoint;sketch=0;size=6;pointerEvents=1;points=[];fillColor=default;resizable=0;rotatable=0;perimeter=centerPerimeter;snapToPoint=1;" vertex="1" parent="mvioNwK95yMqdUQ73LqQ-36">
          <mxGeometry x="70" y="110" width="20" height="20" as="geometry" />
        </mxCell>
        <mxCell id="KaDtegf5qcM63kL2RaSg-161" value="" style="edgeStyle=orthogonalEdgeStyle;rounded=0;orthogonalLoop=1;jettySize=auto;html=1;" edge="1" parent="mvioNwK95yMqdUQ73LqQ-36" source="KaDtegf5qcM63kL2RaSg-158" target="KaDtegf5qcM63kL2RaSg-160">
          <mxGeometry relative="1" as="geometry" />
        </mxCell>
        <mxCell id="KaDtegf5qcM63kL2RaSg-158" value="เเสดงจำนวนเงิน&lt;div&gt;ทอน&lt;/div&gt;" style="shape=parallelogram;perimeter=parallelogramPerimeter;whiteSpace=wrap;html=1;fixedSize=1;sketch=0;pointerEvents=1;resizable=0;" vertex="1" parent="mvioNwK95yMqdUQ73LqQ-36">
          <mxGeometry x="341.5" y="1300" width="120" height="60" as="geometry" />
        </mxCell>
        <mxCell id="KaDtegf5qcM63kL2RaSg-163" value="" style="edgeStyle=orthogonalEdgeStyle;rounded=0;orthogonalLoop=1;jettySize=auto;html=1;" edge="1" parent="mvioNwK95yMqdUQ73LqQ-36" source="KaDtegf5qcM63kL2RaSg-160" target="KaDtegf5qcM63kL2RaSg-162">
          <mxGeometry relative="1" as="geometry" />
        </mxCell>
        <mxCell id="KaDtegf5qcM63kL2RaSg-160" value="ลูกค้ารับเงินทอน" style="whiteSpace=wrap;html=1;sketch=0;pointerEvents=1;resizable=0;" vertex="1" parent="mvioNwK95yMqdUQ73LqQ-36">
          <mxGeometry x="341.5" y="1390" width="120" height="60" as="geometry" />
        </mxCell>
        <mxCell id="KaDtegf5qcM63kL2RaSg-170" value="" style="edgeStyle=orthogonalEdgeStyle;rounded=0;orthogonalLoop=1;jettySize=auto;html=1;" edge="1" parent="mvioNwK95yMqdUQ73LqQ-36" source="KaDtegf5qcM63kL2RaSg-162" target="KaDtegf5qcM63kL2RaSg-169">
          <mxGeometry relative="1" as="geometry" />
        </mxCell>
        <mxCell id="KaDtegf5qcM63kL2RaSg-162" value="รับสินค้า" style="whiteSpace=wrap;html=1;sketch=0;pointerEvents=1;resizable=0;" vertex="1" parent="mvioNwK95yMqdUQ73LqQ-36">
          <mxGeometry x="341.5" y="1480" width="120" height="60" as="geometry" />
        </mxCell>
        <mxCell id="KaDtegf5qcM63kL2RaSg-164" value="ไม่เพิ่ม" style="text;html=1;align=center;verticalAlign=middle;whiteSpace=wrap;rounded=0;" vertex="1" parent="mvioNwK95yMqdUQ73LqQ-36">
          <mxGeometry x="418.5" y="750" width="60" height="30" as="geometry" />
        </mxCell>
        <mxCell id="KaDtegf5qcM63kL2RaSg-165" value="เงินพอ" style="text;html=1;align=center;verticalAlign=middle;whiteSpace=wrap;rounded=0;" vertex="1" parent="mvioNwK95yMqdUQ73LqQ-36">
          <mxGeometry x="411.5" y="1060" width="60" height="30" as="geometry" />
        </mxCell>
        <mxCell id="KaDtegf5qcM63kL2RaSg-167" value="ดึงเงินมาทอนจากระบบ" style="text;html=1;align=center;verticalAlign=middle;whiteSpace=wrap;rounded=0;rotation=90;" vertex="1" parent="mvioNwK95yMqdUQ73LqQ-36">
          <mxGeometry x="90" y="1050" width="60" height="30" as="geometry" />
        </mxCell>
        <mxCell id="KaDtegf5qcM63kL2RaSg-168" value="ไม่ต้องทอน" style="text;html=1;align=center;verticalAlign=middle;whiteSpace=wrap;rounded=0;" vertex="1" parent="mvioNwK95yMqdUQ73LqQ-36">
          <mxGeometry x="419" y="1270" width="60" height="30" as="geometry" />
        </mxCell>
        <mxCell id="KaDtegf5qcM63kL2RaSg-173" value="" style="edgeStyle=orthogonalEdgeStyle;rounded=0;orthogonalLoop=1;jettySize=auto;html=1;" edge="1" parent="mvioNwK95yMqdUQ73LqQ-36" source="KaDtegf5qcM63kL2RaSg-169" target="KaDtegf5qcM63kL2RaSg-171">
          <mxGeometry relative="1" as="geometry" />
        </mxCell>
        <mxCell id="KaDtegf5qcM63kL2RaSg-169" value="อัปเดตข้อมูล&lt;div&gt;cash snack drink&amp;nbsp;&lt;/div&gt;" style="shape=parallelogram;perimeter=parallelogramPerimeter;whiteSpace=wrap;html=1;fixedSize=1;sketch=0;pointerEvents=1;resizable=0;" vertex="1" parent="mvioNwK95yMqdUQ73LqQ-36">
          <mxGeometry x="341.5" y="1580" width="120" height="60" as="geometry" />
        </mxCell>
        <mxCell id="KaDtegf5qcM63kL2RaSg-171" value="สิ้นสุด" style="ellipse;whiteSpace=wrap;html=1;" vertex="1" parent="mvioNwK95yMqdUQ73LqQ-36">
          <mxGeometry x="348.25" y="1670" width="103.5" height="38" as="geometry" />
        </mxCell>
        <mxCell id="mvioNwK95yMqdUQ73LqQ-70" value="&lt;font data-font-src=&quot;https://fonts.googleapis.com/css?family=Sarabun&quot; face=&quot;Sarabun&quot;&gt;โจทย์ปัญหา&lt;/font&gt;" style="swimlane;whiteSpace=wrap;html=1;" parent="WIyWlLk6GJQsqaUBKTNV-1" vertex="1">
          <mxGeometry x="-720" y="320" width="640" height="240" as="geometry" />
        </mxCell>
        <mxCell id="mvioNwK95yMqdUQ73LqQ-71" value="&lt;font data-font-src=&quot;https://fonts.googleapis.com/css?family=Sarabun&quot; face=&quot;Sarabun&quot; style=&quot;font-size: 14px;&quot;&gt;จงเขียน Flowchart เพื่อแสดงขั้นตอนการทำงาน ของเครื่องขายน้ำอัตโนมัติที่ชื่อว่า &quot;ตะพาบลอย&quot;&lt;br&gt;โดยจะต้องมีสินค้าดังนี้&lt;br&gt;&lt;u&gt;ประเภทน้ำ&lt;span style=&quot;white-space: pre;&quot;&gt;&#x9;&lt;/span&gt;&lt;span style=&quot;white-space: pre;&quot;&gt;&#x9;&lt;/span&gt;&lt;span style=&quot;white-space: pre;&quot;&gt;&#x9;&lt;/span&gt;&lt;span style=&quot;white-space: pre;&quot;&gt;&#x9;&lt;/span&gt;&lt;span style=&quot;white-space: pre;&quot;&gt;&#x9;&lt;/span&gt;&lt;span style=&quot;white-space: pre;&quot;&gt;&#x9;&lt;span style=&quot;white-space: pre;&quot;&gt;&#x9;&lt;/span&gt;ข&lt;/span&gt;นม&lt;/u&gt;&lt;br&gt;&lt;span style=&quot;white-space: pre;&quot;&gt;&#x9;&lt;/span&gt;- โค้ก กระป๋องละ 10 บาท&lt;span style=&quot;white-space: pre;&quot;&gt;&#x9;&lt;/span&gt;&lt;span style=&quot;white-space: pre;&quot;&gt;&#x9;&lt;/span&gt;&lt;span style=&quot;white-space: pre;&quot;&gt;&#x9;&lt;/span&gt;&lt;span style=&quot;white-space: pre;&quot;&gt;&#x9;&lt;/span&gt;- เมล็ดทานตะวัน 13 บาท&lt;br&gt;&lt;span style=&quot;white-space: pre;&quot;&gt;&#x9;&lt;/span&gt;- น้ำเขียว กระป๋องละ 12 บาท&lt;span style=&quot;white-space: pre;&quot;&gt;&#x9;&lt;/span&gt;&lt;span style=&quot;white-space: pre;&quot;&gt;&#x9;&lt;/span&gt;&lt;span style=&quot;white-space: pre;&quot;&gt;&#x9;&lt;/span&gt;- ถั่วแปบ 20 บาท&lt;br&gt;&lt;span style=&quot;white-space: pre;&quot;&gt;&#x9;&lt;/span&gt;- อเมริกาโน่ 30 บาท&lt;span style=&quot;white-space: pre;&quot;&gt;&#x9;&lt;/span&gt;&lt;span style=&quot;white-space: pre;&quot;&gt;&#x9;&lt;/span&gt;&lt;span style=&quot;white-space: pre;&quot;&gt;&#x9;&lt;/span&gt;&lt;span style=&quot;white-space: pre;&quot;&gt;&#x9;&lt;/span&gt;&lt;span style=&quot;white-space: pre;&quot;&gt;&#x9;&lt;/span&gt;- จิ้นส้มหมก 15 บาท&lt;br&gt;&lt;span style=&quot;white-space: pre;&quot;&gt;&#x9;&lt;/span&gt;- ลาเต้ หวานเจี๊ยบ 35 บาท&lt;span style=&quot;white-space: pre;&quot;&gt;&#x9;&lt;/span&gt;&lt;br&gt;&lt;br&gt;&lt;u&gt;สิ่งที่ระบบควรจะทำได้&lt;/u&gt;&lt;br&gt;&lt;span style=&quot;white-space: pre;&quot;&gt;&#x9;&lt;/span&gt;- ลูกค้าเลือกสินค้า, ระบบจะต้องรวมยอดขาย และรวมรายการสินค้าทั้งหมดที่ลูกค้าเลือก&lt;br&gt;&lt;span style=&quot;white-space: pre;&quot;&gt;&#x9;&lt;/span&gt;- สรุปยอดว่าเหลือเงินในตู้อีกเท่าไหร่ เหลือเหรียญอะไรบ้าง? ธนบัตรอะไรบ้าง? อย่างละเท่าไหร่?&lt;br&gt;&lt;br&gt;&lt;br&gt;&lt;/font&gt;" style="text;html=1;align=left;verticalAlign=middle;resizable=0;points=[];autosize=1;strokeColor=none;fillColor=none;fontSize=14;" parent="mvioNwK95yMqdUQ73LqQ-70" vertex="1">
          <mxGeometry x="17" y="25" width="580" height="240" as="geometry" />
        </mxCell>
      </root>
    </mxGraphModel>
  </diagram>
</mxfile>
